<?xml version="1.0" encoding="UTF-8"?>
<svg id="Layer_1" data-name="Layer 1" xmlns="http://www.w3.org/2000/svg" viewBox="0 0 2686.63 2686.5">
  <defs>
    <style>
      .cls-1 {
        fill: #989899;
      }

      .cls-1, .cls-2, .cls-3 {
        stroke-width: 0px;
      }

      .cls-2 {
        fill: #1099d6;
      }

      .cls-3 {
        fill: #006198;
      }
    </style>
  </defs>
  <path class="cls-3" d="M1970.7,1635c-43.51-412.6-253.83-797.22-579.57-1058.3-1.26-1.08-3.69-3.05-6.15-5.01l-3.05-2.46c-234.27-184.8-511.93-297.66-805.69-327.97C800.15,85.39,1070.79,0,1343.31,0c367.52,0,710.76,146.09,966.48,411.37,3.69,3.69,6.64,6.81,9.63,9.98l1.51,1.61c149.98,159.07,259.64,353.53,317.43,562.75-145.46,282.54-381.76,512.18-667.66,649.28Z"/>
  <path class="cls-2" d="M961.96,2631.24C393.41,2462.75,0,1939.23,0,1343.19c0-87.46,8.56-175.1,25.44-260.46,1.18-6.56,2.35-12.34,3.61-18.04,50.87-239.85,167.03-461.44,335.95-640.93,3.78-4.11,7.15-7.7,10.64-11.18,22.99-23.85,46.75-46.79,70.87-68.45,294.95,6.64,576.16,100.98,815.06,273.28-318.69,277.44-514.09,675.32-537,1095.03-.26,4.4-.52,9.1-.64,13.66-1.17,23.59-1.78,48.28-1.78,73.04,0,293.21,81.89,579.26,236.8,827.23.93,1.54,1.96,3.18,3.03,4.88Z"/>
  <path class="cls-1" d="M1343.31,2686.5c-74.22,0-148.74-6.16-221.58-18.31-18.65-24.95-36.65-50.77-53.58-76.83l-8.98-13.88c-147.26-231.62-225.44-499.45-226.14-774.65,163.79,56.64,335.35,85.35,510.29,85.35,204.66,0,403.76-39.05,591.77-116.06-.03.02-.06.02-.06.02-.08,0,10.02-4.15,12.49-5.22,297.38-124.52,553.4-342.79,725.13-617.27,9.29,64.05,13.98,128.97,13.98,193.54,0,607.15-409.6,1140.76-996.08,1297.63-6.11,1.83-10.84,3.02-15.65,4.23-20.68,5.26-39.51,9.6-57.62,13.3l-17.21,3.48c-84.1,16.37-170.52,24.68-256.74,24.68Z"/>
</svg>